<?xml version="1.0" encoding="UTF-8" standalone="no"?>
<!-- Created with Inkscape (http://www.inkscape.org/) -->

<svg
   xmlns:dc="http://purl.org/dc/elements/1.1/"
   xmlns:cc="http://creativecommons.org/ns#"
   xmlns:rdf="http://www.w3.org/1999/02/22-rdf-syntax-ns#"
   xmlns:svg="http://www.w3.org/2000/svg"
   xmlns="http://www.w3.org/2000/svg"
   xmlns:sodipodi="http://sodipodi.sourceforge.net/DTD/sodipodi-0.dtd"
   xmlns:inkscape="http://www.inkscape.org/namespaces/inkscape"
   width="210mm"
   height="297mm"
   viewBox="0 0 744.09448819 1052.3622047"
   id="svg2"
   version="1.1"
   inkscape:version="0.91 r13725"
   sodipodi:docname="interactions.svg">
  <defs
     id="defs4" />
  <sodipodi:namedview
     id="base"
     pagecolor="#ffffff"
     bordercolor="#666666"
     borderopacity="1.0"
     inkscape:pageopacity="0.0"
     inkscape:pageshadow="2"
     inkscape:zoom="0.70710678"
     inkscape:cx="680.71874"
     inkscape:cy="707.39738"
     inkscape:document-units="px"
     inkscape:current-layer="layer1"
     showgrid="false"
     inkscape:window-width="1920"
     inkscape:window-height="1007"
     inkscape:window-x="0"
     inkscape:window-y="0"
     inkscape:window-maximized="1" />
  <metadata
     id="metadata7">
    <rdf:RDF>
      <cc:Work
         rdf:about="">
        <dc:format>image/svg+xml</dc:format>
        <dc:type
           rdf:resource="http://purl.org/dc/dcmitype/StillImage" />
        <dc:title></dc:title>
      </cc:Work>
    </rdf:RDF>
  </metadata>
  <g
     inkscape:label="Layer 1"
     inkscape:groupmode="layer"
     id="layer1">
    <path
       style="opacity:0.35100002;fill:none;fill-opacity:1;stroke:#ff0000;stroke-width:1.90146327;stroke-linecap:butt;stroke-linejoin:bevel;stroke-miterlimit:4;stroke-dasharray:none;stroke-dashoffset:0;stroke-opacity:1"
       id="path4148"
       sodipodi:type="arc"
       sodipodi:cx="315.64194"
       sodipodi:cy="-146.25946"
       sodipodi:rx="52.689228"
       sodipodi:ry="58.488476"
       sodipodi:start="0"
       sodipodi:end="3.1415927"
       d="m 368.33117,-146.25946 a 52.689228,58.488476 0 0 1 -26.34462,50.652506 52.689228,58.488476 0 0 1 -52.68923,-10e-7 52.689228,58.488476 0 0 1 -26.34461,-50.652505 l 52.68923,0 z"
       transform="scale(1,-1)" />
    <rect
       style="opacity:0.35100002;fill:#ffffff;fill-opacity:1;stroke:#000000;stroke-width:1;stroke-linecap:butt;stroke-linejoin:bevel;stroke-miterlimit:4;stroke-dasharray:none;stroke-dashoffset:0;stroke-opacity:1"
       id="rect4136"
       width="424.26407"
       height="424.26407"
       x="104.04572"
       y="244.41782" />
    <rect
       style="opacity:0.35100002;fill:#009dff;fill-opacity:1;stroke:#000000;stroke-width:1;stroke-linecap:butt;stroke-linejoin:bevel;stroke-miterlimit:4;stroke-dasharray:none;stroke-dashoffset:0;stroke-opacity:1"
       id="rect4138"
       width="106"
       height="106"
       x="263.17776"
       y="403.54987" />
    <path
       style="fill:none;fill-rule:evenodd;stroke:#000000;stroke-width:1px;stroke-linecap:butt;stroke-linejoin:miter;stroke-opacity:1"
       d="m 104,243.3622 c 424.5,424.5 424,424 424,424 l 1,-1 0,0"
       id="path4140"
       inkscape:connector-curvature="0" />
    <path
       style="fill:none;fill-rule:evenodd;stroke:#000000;stroke-width:5;stroke-linecap:butt;stroke-linejoin:miter;stroke-opacity:1;stroke-miterlimit:4;stroke-dasharray:none"
       d="m 108,146.3622 c 419,0 420,0 420,0"
       id="path4142"
       inkscape:connector-curvature="0" />
    <path
       style="fill:none;fill-rule:evenodd;stroke:#000000;stroke-width:1;stroke-linecap:butt;stroke-linejoin:miter;stroke-opacity:1;stroke-miterlimit:4;stroke-dasharray:6,1;stroke-dashoffset:0"
       d="m 262.45043,405.83798 c 0,-259.88994 0,-259.88994 0,-259.88994"
       id="path4144"
       inkscape:connector-curvature="0" />
    <path
       inkscape:connector-curvature="0"
       id="path4146"
       d="m 368.45043,405.83798 c 0,-259.88994 0,-259.88994 0,-259.88994"
       style="fill:none;fill-rule:evenodd;stroke:#000000;stroke-width:1;stroke-linecap:butt;stroke-linejoin:miter;stroke-opacity:1;stroke-miterlimit:4;stroke-dasharray:6,1;stroke-dashoffset:0" />
    <path
       transform="scale(1,-1)"
       style="opacity:0.35100002;fill:none;fill-opacity:1;stroke:#ff0000;stroke-width:1.90146327;stroke-linecap:butt;stroke-linejoin:bevel;stroke-miterlimit:4;stroke-dasharray:none;stroke-dashoffset:0;stroke-opacity:1"
       d="m 352.32744,-145.56401 c -0.34455,32.16431 -24.02207,57.983234 -52.99876,57.791992 -28.97668,-0.191243 -36.37597,-26.320862 -36.37597,-58.487442"
       id="path4165"
       inkscape:connector-curvature="0"
       sodipodi:nodetypes="csc" />
    <path
       sodipodi:nodetypes="csc"
       inkscape:connector-curvature="0"
       id="path4168"
       d="m 278.95266,145.56401 c 0.34455,-32.16431 24.02207,-57.983234 52.99876,-57.791992 28.97668,0.191243 36.37597,26.320862 36.37597,58.487442"
       style="opacity:0.35100002;fill:none;fill-opacity:1;stroke:#ff0000;stroke-width:1.90146327;stroke-linecap:butt;stroke-linejoin:bevel;stroke-miterlimit:4;stroke-dasharray:none;stroke-dashoffset:0;stroke-opacity:1" />
    <path
       style="opacity:0.35100002;fill:none;fill-opacity:1;stroke:#ff0000;stroke-width:2;stroke-linecap:butt;stroke-linejoin:bevel;stroke-miterlimit:4;stroke-dasharray:none;stroke-dashoffset:0;stroke-opacity:1"
       d="m 332.29651,145.80506 c 0.14047,-32.43144 9.79353,-58.46479 21.60699,-58.27196 11.81347,0.192831 14.83007,26.53946 14.83007,58.97318"
       id="path4170"
       inkscape:connector-curvature="0"
       sodipodi:nodetypes="csc" />
    <path
       sodipodi:nodetypes="csc"
       inkscape:connector-curvature="0"
       id="path4172"
       d="m 299.23358,145.80506 c -0.14047,-32.43144 -9.79353,-58.46479 -21.60699,-58.27196 -11.81347,0.192831 -14.83007,26.53946 -14.83007,58.97318"
       style="opacity:0.35100002;fill:none;fill-opacity:1;stroke:#ff0000;stroke-width:2;stroke-linecap:butt;stroke-linejoin:bevel;stroke-miterlimit:4;stroke-dasharray:none;stroke-dashoffset:0;stroke-opacity:1" />
    <path
       transform="scale(1,-1)"
       d="m 314.0475,-146.72548 a 25.780567,34.807907 0 0 1 -12.89028,30.14453 25.780567,34.807907 0 0 1 -25.78057,0 25.780567,34.807907 0 0 1 -12.89028,-30.14453 l 25.78057,0 z"
       sodipodi:end="3.1415927"
       sodipodi:start="0"
       sodipodi:ry="34.807907"
       sodipodi:rx="25.780567"
       sodipodi:cy="-146.72548"
       sodipodi:cx="288.26694"
       sodipodi:type="arc"
       id="path4174"
       style="opacity:0.35100002;fill:none;fill-opacity:1;stroke:#ff0000;stroke-width:2;stroke-linecap:butt;stroke-linejoin:bevel;stroke-miterlimit:4;stroke-dasharray:none;stroke-dashoffset:0;stroke-opacity:1" />
    <path
       style="opacity:0.35100002;fill:none;fill-opacity:1;stroke:#ff0000;stroke-width:2;stroke-linecap:butt;stroke-linejoin:bevel;stroke-miterlimit:4;stroke-dasharray:none;stroke-dashoffset:0;stroke-opacity:1"
       id="path4176"
       sodipodi:type="arc"
       sodipodi:cx="342.26694"
       sodipodi:cy="-146.72548"
       sodipodi:rx="25.780567"
       sodipodi:ry="34.807907"
       sodipodi:start="0"
       sodipodi:end="3.1415927"
       d="m 368.0475,-146.72548 a 25.780567,34.807907 0 0 1 -12.89028,30.14453 25.780567,34.807907 0 0 1 -25.78057,0 25.780567,34.807907 0 0 1 -12.89028,-30.14453 l 25.78057,0 z"
       transform="scale(1,-1)" />
    <path
       style="opacity:0.35100002;fill:none;fill-opacity:1;stroke:#ff0000;stroke-width:2;stroke-linecap:butt;stroke-linejoin:bevel;stroke-miterlimit:4;stroke-dasharray:none;stroke-dashoffset:0;stroke-opacity:1"
       id="path4178"
       sodipodi:type="arc"
       sodipodi:cx="316.26694"
       sodipodi:cy="-146.72548"
       sodipodi:rx="25.780567"
       sodipodi:ry="34.807907"
       sodipodi:start="0"
       sodipodi:end="3.1415927"
       d="m 342.0475,-146.72548 a 25.780567,34.807907 0 0 1 -12.89028,30.14453 25.780567,34.807907 0 0 1 -25.78057,0 25.780567,34.807907 0 0 1 -12.89028,-30.14453 l 25.78057,0 z"
       transform="scale(1,-1)" />
    <path
       style="opacity:0.35100002;fill:none;fill-opacity:1;stroke:#ff0000;stroke-width:2;stroke-linecap:butt;stroke-linejoin:bevel;stroke-miterlimit:4;stroke-dasharray:none;stroke-dashoffset:0;stroke-opacity:1"
       id="path4180"
       sodipodi:type="arc"
       sodipodi:cx="304.26694"
       sodipodi:cy="-146.72548"
       sodipodi:rx="25.780567"
       sodipodi:ry="34.807907"
       sodipodi:start="0"
       sodipodi:end="3.1415927"
       d="m 330.0475,-146.72548 a 25.780567,34.807907 0 0 1 -12.89028,30.14453 25.780567,34.807907 0 0 1 -25.78057,0 25.780567,34.807907 0 0 1 -12.89028,-30.14453 l 25.78057,0 z"
       transform="scale(1,-1)" />
    <path
       transform="scale(1,-1)"
       d="m 352.0475,-146.72548 a 25.780567,34.807907 0 0 1 -12.89028,30.14453 25.780567,34.807907 0 0 1 -25.78057,0 25.780567,34.807907 0 0 1 -12.89028,-30.14453 l 25.78057,0 z"
       sodipodi:end="3.1415927"
       sodipodi:start="0"
       sodipodi:ry="34.807907"
       sodipodi:rx="25.780567"
       sodipodi:cy="-146.72548"
       sodipodi:cx="326.26694"
       sodipodi:type="arc"
       id="path4182"
       style="opacity:0.35100002;fill:none;fill-opacity:1;stroke:#ff0000;stroke-width:2;stroke-linecap:butt;stroke-linejoin:bevel;stroke-miterlimit:4;stroke-dasharray:none;stroke-dashoffset:0;stroke-opacity:1" />
  </g>
</svg>
